# xmcd
#
# Track frame offsets:
#	150
#	14282
#	27500
#	39980
#	54110
#	66340
#	79317
#	93680
#	107400
#	119165
#	133292
#	146372
#	160300
#	174962
#	189185
#	203502
#	216705
#	229872
#	245882
#	256117
#	269257
#	282342
#	294592
#	306537
#	321670
#
# Disc length: 4473
#
# Revision: 2
# Processed by: cddbd v1.5.1PL0 Copyright (c) Steve Scherf et al.
# Submitted via: EasyCDDAExtractor 5.0.6
# Normalized: r1:DSETVAR1
#
DISCID=82117719
DTITLE=Various Artist - Original Blues
DYEAR=1900
DGENRE=Blues
TTITLE0=John Lee Hooker - Stomp Boogie
TTITLE1=Muddy Waters - Walking Blues
TTITLE2=Blind Boy Fuller - Train Whistle Blues
TTITLE3=John Lee Hooker - Boogie Chillun
TTITLE4=Peter Chatman - Blues At Midnight
TTITLE5=Billie Holyday - St Louis Blues
TTITLE6=John Lee Hooker - Sally Mae
TTITLE7=Leadbelly - New York City
TTITLE8=Arthur Cudrup - Mean Old, Frisco Blues
TTITLE9=Dessie Smith - Lady Luck Blues
TTITLE10=Lightning Hopkins - L A Blues
TTITLE11=Muddy Waters - I Can't Be Satisfied
TTITLE12=Big Joe Williams - Highway Forty Nine
TTITLE13=Billie Holiday - Guess Who
TTITLE14=Louis Armstron and Earl Hines - A Monday Date
TTITLE15=Big Joe Williams - Brother James
TTITLE16=Muddy Waters - Burr Clover Farm Blues
TTITLE17=Muddy Waters - I Feel Like Going Home
TTITLE18=Lightning Hopkins - Down Baby
TTITLE19=Memphis Minnie - Frisco Town
TTITLE20=Leadbelly - Good Morning Blues
TTITLE21=Ma Rainy - Stormy Sea Blues
TTITLE22=Robert Johnson - When You Got a Good Friend
TTITLE23=Peter Chatman - Beer Drinking Woman
TTITLE24=John Lee Hooker - Alberta Parts One Two
EXTD=
EXTT0=
EXTT1=
EXTT2=
EXTT3=
EXTT4=
EXTT5=
EXTT6=
EXTT7=
EXTT8=
EXTT9=
EXTT10=
EXTT11=
EXTT12=
EXTT13=
EXTT14=
EXTT15=
EXTT16=
EXTT17=
EXTT18=
EXTT19=
EXTT20=
EXTT21=
EXTT22=
EXTT23=
EXTT24=
PLAYORDER=
